<svg width="34" height="28" viewBox="0 0 34 28" fill="none" xmlns="http://www.w3.org/2000/svg">
<path d="M33.3142 6.87441L29.4426 19.0681C29.1532 19.9365 28.3933 20.5154 27.4888 20.5154H12.5451C11.6767 20.5154 10.8445 19.9727 10.5551 19.1767L4.83813 3.87121H1.54547C0.74944 3.87121 0.0981445 3.21991 0.0981445 2.42389C0.0981445 1.62786 0.74944 0.976562 1.54547 0.976562H5.85126C6.46637 0.976562 7.00912 1.37458 7.22622 1.95351L13.1241 17.6208H26.8736L29.9492 7.85135H12.907C12.1109 7.85135 11.4596 7.20006 11.4596 6.40403C11.4596 5.608 12.1109 4.9567 12.907 4.9567H31.9393C32.4097 4.9567 32.8438 5.20999 33.0971 5.57182C33.3866 5.93365 33.459 6.44021 33.3142 6.87441ZM13.2688 22.4331C12.6537 22.4331 12.0386 22.6864 11.6044 23.1206C11.1702 23.5548 10.9169 24.1699 10.9169 24.785C10.9169 25.4002 11.1702 26.0153 11.6044 26.4495C12.0386 26.8837 12.6537 27.1369 13.2688 27.1369C13.8839 27.1369 14.499 26.8837 14.9332 26.4495C15.3674 26.0153 15.6207 25.4002 15.6207 24.785C15.6207 24.1699 15.3674 23.5548 14.9332 23.1206C14.499 22.6864 13.8839 22.4331 13.2688 22.4331ZM26.2585 22.4331C25.6434 22.4331 25.0283 22.6864 24.5941 23.1206C24.1599 23.5548 23.9066 24.1699 23.9066 24.785C23.9066 25.4002 24.1599 26.0153 24.5941 26.4495C25.0283 26.8837 25.6434 27.1369 26.2585 27.1369C26.8736 27.1369 27.4888 26.8837 27.9229 26.4495C28.3571 26.0153 28.6104 25.4002 28.6104 24.785C28.6104 24.1699 28.3571 23.5548 27.9229 23.1206C27.4888 22.6864 26.8736 22.4331 26.2585 22.4331Z" fill="#1D3D91"/>
</svg>
