<svg width="94" height="95" viewBox="0 0 94 95" fill="none" xmlns="http://www.w3.org/2000/svg">
<path d="M27.912 8.82199C27.5225 8.82203 27.1489 8.97667 26.8735 9.25211C26.598 9.52755 26.4433 9.90122 26.4432 10.2907V27.0896C26.4432 36.8333 33.3587 44.7696 42.5364 46.8259V48.57V50.2798C33.3572 52.3357 26.4375 60.277 26.4375 70.0218V83.7282C26.4375 84.1178 26.5923 84.4913 26.8677 84.7667C27.1432 85.0421 27.5167 85.197 27.9062 85.197H66.1454C66.5349 85.197 66.9085 85.0421 67.1839 84.7667C67.4593 84.4913 67.6141 84.1178 67.6141 83.7282V70.0218C67.6141 60.2773 60.6994 52.3357 51.521 50.2798V48.57V46.8259C60.6987 44.7696 67.6141 36.8333 67.6141 27.0896V10.2907C67.6141 9.90122 67.4593 9.52755 67.1839 9.25211C66.9085 8.97667 66.5349 8.82203 66.1454 8.82199H27.912ZM29.3807 11.7595H64.6766V27.0896C64.6766 35.8598 58.2717 43.028 49.8228 44.3531C49.4771 44.4078 49.1624 44.584 48.9352 44.8501C48.708 45.1163 48.5833 45.4547 48.5835 45.8047V48.57V51.3067C48.5833 51.6567 48.708 51.9951 48.9352 52.2613C49.1624 52.5274 49.4771 52.7036 49.8228 52.7583C58.2718 54.0834 64.6766 61.251 64.6766 70.0218V82.2595H29.375V70.0218C29.375 61.2516 35.7791 54.0834 44.2289 52.7583C44.5756 52.7048 44.8916 52.5293 45.12 52.2631C45.3483 51.9968 45.4739 51.6575 45.4739 51.3067V48.57V45.8047C45.4739 45.4539 45.3483 45.1149 45.12 44.8487C44.8916 44.5824 44.5756 44.4066 44.2289 44.3531C35.7799 43.028 29.3807 35.8598 29.3807 27.0896V11.7595Z" fill="#4BBFEB"/>
<path d="M27.912 8.82199C27.5225 8.82203 27.1489 8.97667 26.8735 9.25211C26.598 9.52755 26.4433 9.90122 26.4432 10.2907V27.0896C26.4432 36.8333 33.3587 44.7696 42.5364 46.8259V48.57V50.2798C33.3572 52.3357 26.4375 60.277 26.4375 70.0218V83.7282C26.4375 84.1178 26.5923 84.4913 26.8677 84.7667C27.1432 85.0421 27.5167 85.197 27.9062 85.197H66.1454C66.5349 85.197 66.9085 85.0421 67.1839 84.7667C67.4593 84.4913 67.6141 84.1178 67.6141 83.7282V70.0218C67.6141 60.2773 60.6994 52.3357 51.521 50.2798V48.57V46.8259C60.6987 44.7696 67.6141 36.8333 67.6141 27.0896V10.2907C67.6141 9.90122 67.4593 9.52755 67.1839 9.25211C66.9085 8.97667 66.5349 8.82203 66.1454 8.82199H27.912ZM29.3807 11.7595H64.6766V27.0896C64.6766 35.8598 58.2717 43.028 49.8228 44.3531C49.4771 44.4078 49.1624 44.584 48.9352 44.8501C48.708 45.1163 48.5833 45.4547 48.5835 45.8047V48.57V51.3067C48.5833 51.6567 48.708 51.9951 48.9352 52.2613C49.1624 52.5274 49.4771 52.7036 49.8228 52.7583C58.2718 54.0834 64.6766 61.251 64.6766 70.0218V82.2595H29.375V70.0218C29.375 61.2516 35.7791 54.0834 44.2289 52.7583C44.5756 52.7048 44.8916 52.5293 45.12 52.2631C45.3483 51.9968 45.4739 51.6575 45.4739 51.3067V48.57V45.8047C45.4739 45.4539 45.3483 45.1149 45.12 44.8487C44.8916 44.5824 44.5756 44.4066 44.2289 44.3531C35.7799 43.028 29.3807 35.8598 29.3807 27.0896V11.7595Z" fill="#4BBFEB"/>
<path d="M32.3125 14.6995V18.6181V22.5309V27.0347V27.333H32.3298C32.4703 34.3125 37.4683 40.0995 44.0861 41.4328C47 42.02 47 44.0716 47 44.0716C47 44.0716 47 42.0269 49.9451 41.4267C56.5474 40.0814 61.5301 34.3014 61.6703 27.333H61.6876V27.0347V22.5309V18.6181L61.6875 14.6995H32.3125ZM47 71.9807C47 71.9807 47 73.1363 44.0359 73.7532C40.4874 74.4914 37.4219 76.5274 35.3131 79.3245H58.6869C56.5772 76.5262 53.51 74.4897 49.9596 73.7521C47 73.1376 47 71.9807 47 71.9807Z" fill="#F8B84E"/>
<path d="M16.1562 82.2595C15.7667 82.2595 15.3932 82.4144 15.1177 82.6898C14.8423 82.9652 14.6875 83.3387 14.6875 83.7282V86.6657V89.6032C14.6875 89.9928 14.8423 90.3663 15.1177 90.6417C15.3932 90.9171 15.7667 91.072 16.1562 91.072H77.8438C78.2333 91.072 78.6068 90.9171 78.8823 90.6417C79.1577 90.3663 79.3125 89.9928 79.3125 89.6032V86.6657V83.7282C79.3125 83.3387 79.1577 82.9652 78.8823 82.6898C78.6068 82.4144 78.2333 82.2595 77.8438 82.2595H16.1562ZM17.625 85.197H76.375V86.6657V88.1345H17.625V86.6657V85.197ZM16.1562 2.94699C15.7667 2.94703 15.3932 3.10167 15.1177 3.37711C14.8423 3.65255 14.6875 4.02622 14.6875 4.41574V7.35324V10.2907C14.6875 10.6803 14.8423 11.0538 15.1177 11.3292C15.3932 11.6046 15.7667 11.7595 16.1562 11.7595H77.8438C78.2333 11.7595 78.6068 11.6046 78.8823 11.3292C79.1577 11.0538 79.3125 10.6803 79.3125 10.2907V7.35324V4.41574C79.3125 4.02622 79.1577 3.65255 78.8823 3.37711C78.6068 3.10167 78.2333 2.94703 77.8438 2.94699H16.1562ZM17.625 5.88449H76.375V7.35324V8.82199H17.625V7.35324V5.88449Z" fill="black"/>
<path fill-rule="evenodd" clip-rule="evenodd" d="M17.625 11.7595V82.2595H20.5625V11.7595H17.625ZM73.4375 11.7595V82.2595H76.375V11.7595H73.4375Z" fill="black"/>
</svg>
