<svg width="82" height="84" viewBox="0 0 82 84" fill="none" xmlns="http://www.w3.org/2000/svg">
<path d="M20.5 18.8572C19.8204 18.8572 19.1686 18.5839 18.688 18.0975C18.2075 17.6111 17.9375 16.9513 17.9375 16.2634V5.88843C17.9375 5.20052 18.2075 4.54079 18.688 4.05437C19.1686 3.56795 19.8204 3.29468 20.5 3.29468C21.1796 3.29468 21.8314 3.56795 22.312 4.05437C22.7925 4.54079 23.0625 5.20052 23.0625 5.88843V16.2634C23.0625 16.9513 22.7925 17.6111 22.312 18.0975C21.8314 18.5839 21.1796 18.8572 20.5 18.8572ZM61.5 18.8572C60.8204 18.8572 60.1686 18.5839 59.688 18.0975C59.2075 17.6111 58.9375 16.9513 58.9375 16.2634V5.88843C58.9375 5.20052 59.2075 4.54079 59.688 4.05437C60.1686 3.56795 60.8204 3.29468 61.5 3.29468C62.1796 3.29468 62.8314 3.56795 63.312 4.05437C63.7925 4.54079 64.0625 5.20052 64.0625 5.88843V16.2634C64.0625 16.9513 63.7925 17.6111 63.312 18.0975C62.8314 18.5839 62.1796 18.8572 61.5 18.8572Z" fill="#96D7FF"/>
<path d="M61.5 18.8572C60.8204 18.8572 60.1686 18.5839 59.688 18.0975C59.2075 17.6111 58.9375 16.9513 58.9375 16.2634V5.88843C58.9375 5.20052 59.2075 4.54079 59.688 4.05437C60.1686 3.56795 60.8204 3.29468 61.5 3.29468C62.1796 3.29468 62.8314 3.56795 63.312 4.05437C63.7925 4.54079 64.0625 5.20052 64.0625 5.88843V16.2634C64.0625 16.9513 63.7925 17.6111 63.312 18.0975C62.8314 18.5839 62.1796 18.8572 61.5 18.8572Z" fill="#86C3EF"/>
<path d="M71.75 13.6697H10.25C6.00431 13.6697 2.5625 17.1535 2.5625 21.4509V73.3259C2.5625 77.6234 6.00431 81.1072 10.25 81.1072H71.75C75.9957 81.1072 79.4375 77.6234 79.4375 73.3259V21.4509C79.4375 17.1535 75.9957 13.6697 71.75 13.6697Z" fill="#EEF5FD"/>
<path d="M79.4375 21.4509V73.3259C79.4375 75.3896 78.6276 77.3688 77.1859 78.8281C75.7442 80.2874 73.7889 81.1072 71.75 81.1072H41V13.6697H71.75C73.7889 13.6697 75.7442 14.4895 77.1859 15.9488C78.6276 17.408 79.4375 19.3872 79.4375 21.4509Z" fill="#D7E2F2"/>
<path d="M20.5 24.0447C24.7457 24.0447 28.1875 20.5609 28.1875 16.2634C28.1875 11.966 24.7457 8.48218 20.5 8.48218C16.2543 8.48218 12.8125 11.966 12.8125 16.2634C12.8125 20.5609 16.2543 24.0447 20.5 24.0447Z" fill="#FFC661"/>
<path d="M61.5 24.0447C65.7457 24.0447 69.1875 20.5609 69.1875 16.2634C69.1875 11.966 65.7457 8.48218 61.5 8.48218C57.2543 8.48218 53.8125 11.966 53.8125 16.2634C53.8125 20.5609 57.2543 24.0447 61.5 24.0447Z" fill="#FFC661"/>
<path d="M64.0625 26.6384H17.9375C15.107 26.6384 12.8125 28.961 12.8125 31.8259V62.9509C12.8125 65.8159 15.107 68.1384 17.9375 68.1384H64.0625C66.893 68.1384 69.1875 65.8159 69.1875 62.9509V31.8259C69.1875 28.961 66.893 26.6384 64.0625 26.6384Z" fill="#96D7FF"/>
<path d="M61.5 24.0447C65.7457 24.0447 69.1875 20.5609 69.1875 16.2634C69.1875 11.966 65.7457 8.48218 61.5 8.48218C57.2543 8.48218 53.8125 11.966 53.8125 16.2634C53.8125 20.5609 57.2543 24.0447 61.5 24.0447Z" fill="#E49F4E"/>
<path d="M69.1875 31.8259V62.9509C69.1875 64.3267 68.6475 65.6462 67.6864 66.619C66.7253 67.5919 65.4217 68.1384 64.0625 68.1384H41V26.6384H64.0625C65.4217 26.6384 66.7253 27.185 67.6864 28.1578C68.6475 29.1307 69.1875 30.4501 69.1875 31.8259Z" fill="#86C3EF"/>
</svg>
