<svg width="86" height="87" viewBox="0 0 86 87" fill="none" xmlns="http://www.w3.org/2000/svg">
<path d="M82.3685 4.37817V26.5467H67.0682L58.1357 32.9833V26.5467H52.5507V4.37817H82.3685Z" fill="#FEDB41"/>
<path d="M38.3254 60.8123H45.029C47.3818 60.8123 49.6382 61.7468 51.302 63.4103C52.9658 65.0738 53.9007 67.33 53.9012 69.6827V83.2395H3.63147V69.6827C3.63151 67.3302 4.56609 65.074 6.22961 63.4105C7.89313 61.7469 10.1493 60.8124 12.5019 60.8123H19.1652C21.7869 63.0816 25.1291 64.3462 28.5963 64.381C32.0635 64.4158 35.4304 63.2183 38.097 61.0021L38.3254 60.8123Z" fill="#00EFD1"/>
<path d="M37.5814 18.743L48.4741 17.0314C48.4741 20.7435 47.0145 24.6437 43.8768 26.2613C43.5337 26.4389 43.1757 26.5862 42.8069 26.7013C42.8069 26.7013 32.03 28.3575 25.1214 28.759C24.1657 28.8144 23.2856 28.8463 22.5163 28.8463H22.5146C22.0729 28.846 21.6494 28.6703 21.3372 28.3579C21.0251 28.0454 20.8498 27.6217 20.85 27.1801V21.3448C20.847 20.5124 21.0806 19.6963 21.5236 18.9916H21.5252C22.0289 18.1847 22.779 17.5614 23.6645 17.2141C24.55 16.8668 25.5238 16.8139 26.4417 17.0633L31.4287 18.4104C33.4334 18.9525 35.5299 19.0658 37.5814 18.743Z" fill="#4B5D63"/>
<path d="M38.3254 54.5068C35.6586 56.7803 32.269 58.029 28.7646 58.029C25.2603 58.029 21.8706 56.7803 19.2038 54.5068C17.4652 53.0474 16.0662 51.2261 15.1044 49.17C14.1427 47.114 13.6414 44.8727 13.6357 42.6028V33.4922H13.6844C15.401 33.7677 20.0941 34.2296 25.1231 28.7874L25.1214 28.7588C32.0299 28.3574 42.8068 26.7012 42.8068 26.7012C43.1756 26.586 43.5336 26.4388 43.8768 26.2611L43.8953 26.2947V42.6028C43.8874 46.6577 42.2977 50.5496 39.4642 53.4502C39.1031 53.8218 38.723 54.1745 38.3254 54.5068Z" fill="#F7CAA5"/>
<path d="M38.3254 54.5068V60.8123L38.097 61.0021C35.4304 63.2183 32.0635 64.4158 28.5963 64.381C25.1291 64.3462 21.7869 63.0816 19.1652 60.8123V54.5538L19.2039 54.5068C21.8706 56.7803 25.2603 58.0291 28.7646 58.0291C32.269 58.0291 35.6586 56.7803 38.3254 54.5068Z" fill="#EDB288"/>
<path d="M25.1214 28.7588L25.1231 28.7874C20.0941 34.2296 15.401 33.7677 13.6844 33.4922H13.6357V32.2744C13.6366 29.5561 14.3695 26.8882 15.7575 24.5509C17.1454 22.2136 19.1372 20.2932 21.5235 18.9915C21.0806 19.6962 20.847 20.5123 20.8499 21.3447V27.1799C20.8498 27.6216 21.025 28.0453 21.3372 28.3577C21.6493 28.6702 22.0728 28.8459 22.5145 28.8462H22.5162C23.2855 28.8462 24.1656 28.8143 25.1214 28.7588Z" fill="#425054"/>
<path d="M22.9546 44.6084C21.8308 44.6069 20.7535 44.1597 19.959 43.3649C19.1645 42.5701 18.7178 41.4926 18.7167 40.3688C18.7167 40.057 18.8406 39.7579 19.0611 39.5374C19.2816 39.3169 19.5807 39.1931 19.8925 39.1931C20.2044 39.1931 20.5034 39.3169 20.7239 39.5374C20.9444 39.7579 21.0683 40.057 21.0683 40.3688C21.0683 40.8691 21.267 41.3489 21.6208 41.7026C21.9745 42.0564 22.4543 42.2551 22.9546 42.2551C23.4549 42.2551 23.9346 42.0564 24.2884 41.7026C24.6421 41.3489 24.8409 40.8691 24.8409 40.3688C24.8409 40.057 24.9648 39.7579 25.1853 39.5374C25.4058 39.3169 25.7048 39.1931 26.0167 39.1931C26.3285 39.1931 26.6276 39.3169 26.8481 39.5374C27.0686 39.7579 27.1924 40.057 27.1924 40.3688C27.1914 41.4926 26.7447 42.5701 25.9502 43.3649C25.1557 44.1597 24.0784 44.6069 22.9546 44.6084ZM34.5763 44.6084C33.4526 44.6069 32.3752 44.1597 31.5808 43.3649C30.7863 42.5701 30.3395 41.4926 30.3385 40.3688C30.3385 40.057 30.4624 39.7579 30.6829 39.5374C30.9034 39.3169 31.2024 39.1931 31.5143 39.1931C31.8261 39.1931 32.1252 39.3169 32.3457 39.5374C32.5662 39.7579 32.6901 40.057 32.6901 40.3688C32.6901 40.8693 32.8889 41.3493 33.2428 41.7032C33.5967 42.0571 34.0767 42.256 34.5772 42.256C35.0777 42.256 35.5577 42.0571 35.9116 41.7032C36.2655 41.3493 36.4643 40.8693 36.4643 40.3688C36.4643 40.057 36.5882 39.7579 36.8087 39.5374C37.0292 39.3169 37.3283 39.1931 37.6401 39.1931C37.9519 39.1931 38.251 39.3169 38.4715 39.5374C38.692 39.7579 38.8159 40.057 38.8159 40.3688C38.8146 41.4928 38.3676 42.5705 37.5728 43.3653C36.778 44.1601 35.7004 44.6071 34.5763 44.6084Z" fill="#EDB288"/>
<path d="M69.0805 11.6008H57.7376C57.4257 11.6008 57.1267 11.477 56.9062 11.2565C56.6857 11.036 56.5618 10.7369 56.5618 10.425C56.5618 10.1132 56.6857 9.81415 56.9062 9.59365C57.1267 9.37314 57.4257 9.24927 57.7376 9.24927H69.0805C69.3923 9.24927 69.6914 9.37314 69.9119 9.59365C70.1324 9.81415 70.2563 10.1132 70.2563 10.425C70.2563 10.7369 70.1324 11.036 69.9119 11.2565C69.6914 11.477 69.3923 11.6008 69.0805 11.6008ZM77.4789 16.6399H57.7376C57.4257 16.6399 57.1267 16.516 56.9062 16.2955C56.6857 16.075 56.5618 15.7759 56.5618 15.4641C56.5618 15.1523 56.6857 14.8532 56.9062 14.6327C57.1267 14.4122 57.4257 14.2883 57.7376 14.2883H77.4789C77.7908 14.2883 78.0899 14.4122 78.3104 14.6327C78.5309 14.8532 78.6547 15.1523 78.6547 15.4641C78.6547 15.7759 78.5309 16.075 78.3104 16.2955C78.0899 16.516 77.7908 16.6399 77.4789 16.6399ZM77.4789 21.679H57.7376C57.4257 21.679 57.1267 21.5551 56.9062 21.3346C56.6857 21.1141 56.5618 20.815 56.5618 20.5032C56.5618 20.1913 56.6857 19.8923 56.9062 19.6718C57.1267 19.4513 57.4257 19.3274 57.7376 19.3274H77.4789C77.7908 19.3274 78.0899 19.4513 78.3104 19.6718C78.5309 19.8923 78.6547 20.1913 78.6547 20.5032C78.6547 20.815 78.5309 21.1141 78.3104 21.3346C78.0899 21.5551 77.7908 21.679 77.4789 21.679Z" fill="#00ACEA"/>
<path d="M36.5399 71.9537C37.2358 71.9535 37.9161 72.1597 38.4948 72.5462C39.0735 72.9328 39.5245 73.4822 39.7909 74.1251C40.0573 74.768 40.127 75.4754 39.9913 76.1579C39.8556 76.8405 39.5205 77.4674 39.0284 77.9595C38.5364 78.4515 37.9094 78.7866 37.2269 78.9223C36.5444 79.0581 35.8369 78.9883 35.194 78.7219C34.5512 78.4555 34.0017 78.0045 33.6152 77.4258C33.2287 76.8471 33.0225 76.1668 33.0226 75.4709C33.023 74.5382 33.3937 73.6438 34.0532 72.9843C34.7128 72.3247 35.6072 71.954 36.5399 71.9537Z" fill="#00EFD1"/>
<path d="M36.5399 71.9537C37.2358 71.9535 37.9161 72.1597 38.4948 72.5462C39.0735 72.9328 39.5245 73.4822 39.7909 74.1251C40.0573 74.768 40.127 75.4754 39.9913 76.1579C39.8556 76.8405 39.5205 77.4674 39.0284 77.9595C38.5364 78.4515 37.9094 78.7866 37.2269 78.9223C36.5444 79.0581 35.8369 78.9883 35.194 78.7219C34.5512 78.4555 34.0017 78.0045 33.6152 77.4258C33.2287 76.8471 33.0225 76.1668 33.0226 75.4709C33.023 74.5382 33.3937 73.6438 34.0532 72.9843C34.7128 72.3247 35.6072 71.954 36.5399 71.9537Z" fill="#00EFD1"/>
</svg>
