<svg width="88" height="89" viewBox="0 0 88 89" fill="none" xmlns="http://www.w3.org/2000/svg">
<path d="M39.875 60.6488L40.0537 71.6488L29.645 68.0876L19.25 71.6488L19.3325 66.8088C24.24 66.7913 29.0008 65.1333 32.8576 62.0987C36.7144 59.064 39.4459 54.827 40.6175 50.0613L46.475 51.8626L39.875 60.6488Z" fill="#FDA736"/>
<path d="M40.6175 50.0613C39.4459 54.827 36.7144 59.064 32.8576 62.0987C29.0008 65.1333 24.24 66.7913 19.3325 66.8088L19.4288 60.6488L17.875 58.5588L12.8288 51.8626L17.875 50.3088L23.375 48.6313L26.125 44.8088L29.755 39.6388L33.275 44.8088L36.025 48.6313L40.6175 50.0613Z" fill="#FED370"/>
<path d="M40.0537 73.0238C39.9045 73.0222 39.7564 72.999 39.6137 72.9551L29.645 69.5588L19.69 72.9688C19.4813 73.0393 19.2587 73.0586 19.0409 73.0251C18.8232 72.9916 18.6166 72.9063 18.4388 72.7763C18.2578 72.6443 18.1119 72.47 18.0136 72.2687C17.9154 72.0675 17.8678 71.8452 17.875 71.6213L18.04 61.1026L11.7288 52.6876C11.5944 52.5143 11.5035 52.3115 11.4635 52.0959C11.4235 51.8804 11.4357 51.6584 11.4989 51.4485C11.5621 51.2386 11.6747 51.0468 11.8271 50.8893C11.9795 50.7317 12.1673 50.6128 12.375 50.5426L22.4262 47.4488L23.375 46.1838C23.4797 46.0358 23.6126 45.9098 23.766 45.8131C23.9194 45.7163 24.0904 45.6508 24.2692 45.6202C24.4479 45.5895 24.6309 45.5944 24.8078 45.6345C24.9847 45.6746 25.1519 45.7491 25.3 45.8538C25.4481 45.9586 25.5741 46.0914 25.6708 46.2449C25.7675 46.3983 25.833 46.5692 25.8637 46.748C25.8943 46.9267 25.8895 47.1098 25.8494 47.2867C25.8093 47.4635 25.7347 47.6308 25.63 47.7788L24.4887 49.3876C24.3133 49.6434 24.0565 49.8324 23.76 49.9238L15.125 52.6051L20.5563 59.8238C20.7405 60.0693 20.8373 60.3694 20.8313 60.6763L20.625 69.7101L29.205 66.8088C29.4904 66.7124 29.7996 66.7124 30.085 66.8088L38.6512 69.7376V68.2388C38.6512 67.8742 38.7961 67.5244 39.054 67.2666C39.3118 67.0087 39.6616 66.8638 40.0262 66.8638C40.3909 66.8638 40.7407 67.0087 40.9985 67.2666C41.2564 67.5244 41.4012 67.8742 41.4012 68.2388V71.7038C41.4062 71.9254 41.3575 72.1449 41.2594 72.3436C41.1612 72.5423 41.0165 72.7144 40.8375 72.8451C40.5982 72.977 40.3266 73.0389 40.0537 73.0238ZM39.875 64.0588C39.5103 64.0588 39.1606 63.914 38.9027 63.6561C38.6449 63.3982 38.5 63.0485 38.5 62.6838V60.6488C38.497 60.3466 38.5936 60.0518 38.775 59.8101L44.2062 52.5913L35.5712 49.9376C35.2748 49.8462 35.018 49.6572 34.8425 49.4013L29.645 42.0588L28.765 43.3238C28.5492 43.6023 28.2347 43.7872 27.8864 43.8406C27.5382 43.8939 27.1827 43.8115 26.8935 43.6104C26.6042 43.4094 26.4031 43.1049 26.3318 42.7599C26.2604 42.4149 26.3242 42.0557 26.51 41.7563L28.5175 38.8826C28.6439 38.7004 28.8124 38.5516 29.0087 38.4486C29.205 38.3457 29.4233 38.2917 29.645 38.2913C29.8667 38.2917 30.085 38.3457 30.2813 38.4486C30.4776 38.5516 30.6461 38.7004 30.7725 38.8826L36.8225 47.4763L46.8737 50.5701C47.0859 50.6348 47.2792 50.7499 47.4372 50.9055C47.5952 51.0612 47.7133 51.2527 47.7812 51.4638C47.8498 51.6736 47.8669 51.8969 47.831 52.1147C47.7951 52.3324 47.7073 52.5384 47.575 52.7151L41.25 61.1026V62.6838C41.25 63.0485 41.1051 63.3982 40.8473 63.6561C40.5894 63.914 40.2397 64.0588 39.875 64.0588Z" fill="#35214C"/>
<path d="M75.625 62.6838C75.2603 62.6838 74.9106 62.539 74.6527 62.2811C74.3949 62.0232 74.25 61.6735 74.25 61.3088C74.25 60.9442 74.1051 60.5944 73.8473 60.3366C73.5894 60.0787 73.2397 59.9338 72.875 59.9338C72.5103 59.9338 72.1606 59.789 71.9027 59.5311C71.6449 59.2732 71.5 58.9235 71.5 58.5588C71.5 58.1942 71.6449 57.8444 71.9027 57.5866C72.1606 57.3287 72.5103 57.1838 72.875 57.1838C73.2397 57.1838 73.5894 57.039 73.8473 56.7811C74.1051 56.5232 74.25 56.1735 74.25 55.8088C74.25 55.4442 74.3949 55.0944 74.6527 54.8366C74.9106 54.5787 75.2603 54.4338 75.625 54.4338C75.9897 54.4338 76.3394 54.5787 76.5973 54.8366C76.8551 55.0944 77 55.4442 77 55.8088C77 56.1735 77.1449 56.5232 77.4027 56.7811C77.6606 57.039 78.0103 57.1838 78.375 57.1838C78.7397 57.1838 79.0894 57.3287 79.3473 57.5866C79.6051 57.8444 79.75 58.1942 79.75 58.5588C79.75 58.9235 79.6051 59.2732 79.3473 59.5311C79.0894 59.789 78.7397 59.9338 78.375 59.9338C78.0103 59.9338 77.6606 60.0787 77.4027 60.3366C77.1449 60.5944 77 60.9442 77 61.3088C77 61.6735 76.8551 62.0232 76.5973 62.2811C76.3394 62.539 75.9897 62.6838 75.625 62.6838Z" fill="#FD7504"/>
<path d="M13.75 31.0588C13.3853 31.0588 13.0356 30.914 12.7777 30.6561C12.5199 30.3982 12.375 30.0485 12.375 29.6838C12.375 29.3192 12.2301 28.9694 11.9723 28.7116C11.7144 28.4537 11.3647 28.3088 11 28.3088C10.6353 28.3088 10.2856 28.164 10.0277 27.9061C9.76987 27.6482 9.625 27.2985 9.625 26.9338C9.625 26.5692 9.76987 26.2194 10.0277 25.9616C10.2856 25.7037 10.6353 25.5588 11 25.5588C11.3647 25.5588 11.7144 25.414 11.9723 25.1561C12.2301 24.8982 12.375 24.5485 12.375 24.1838C12.375 23.8192 12.5199 23.4694 12.7777 23.2116C13.0356 22.9537 13.3853 22.8088 13.75 22.8088C14.1147 22.8088 14.4644 22.9537 14.7223 23.2116C14.9801 23.4694 15.125 23.8192 15.125 24.1838C15.125 24.5485 15.2699 24.8982 15.5277 25.1561C15.7856 25.414 16.1353 25.5588 16.5 25.5588C16.8647 25.5588 17.2144 25.7037 17.4723 25.9616C17.7301 26.2194 17.875 26.5692 17.875 26.9338C17.875 27.2985 17.7301 27.6482 17.4723 27.9061C17.2144 28.164 16.8647 28.3088 16.5 28.3088C16.1353 28.3088 15.7856 28.4537 15.5277 28.7116C15.2699 28.9694 15.125 29.3192 15.125 29.6838C15.125 30.0485 14.9801 30.3982 14.7223 30.6561C14.4644 30.914 14.1147 31.0588 13.75 31.0588Z" fill="#FD8F07"/>
<path d="M37.125 37.9338C36.7729 37.9361 36.4333 37.8032 36.1762 37.5626C36.0474 37.4348 35.9451 37.2827 35.8753 37.1151C35.8055 36.9476 35.7695 36.7678 35.7695 36.5863C35.7695 36.4048 35.8055 36.2251 35.8753 36.0575C35.9451 35.89 36.0474 35.7379 36.1762 35.6101L59.5513 10.8601C59.6758 10.7283 59.8252 10.6223 59.9907 10.5482C60.1563 10.4741 60.3348 10.4333 60.5161 10.4282C60.6974 10.4231 60.878 10.4538 61.0474 10.5184C61.2169 10.5831 61.3719 10.6805 61.5037 10.8051C61.6356 10.9297 61.7416 11.079 61.8157 11.2446C61.8898 11.4101 61.9305 11.5886 61.9356 11.7699C61.9407 11.9512 61.9101 12.1318 61.8454 12.3012C61.7808 12.4707 61.6833 12.6258 61.5588 12.7576L38.1838 37.5076C38.0481 37.6503 37.8834 37.7622 37.7007 37.8357C37.518 37.9093 37.3217 37.9427 37.125 37.9338ZM53.625 40.6838C53.444 40.6849 53.2647 40.6502 53.0971 40.5818C52.9296 40.5133 52.7772 40.4125 52.6488 40.2851C52.5199 40.1573 52.4176 40.0052 52.3478 39.8376C52.278 39.6701 52.242 39.4903 52.242 39.3088C52.242 39.1273 52.278 38.9476 52.3478 38.78C52.4176 38.6125 52.5199 38.4604 52.6488 38.3326L65.0238 25.9576C65.152 25.8294 65.3041 25.7277 65.4717 25.6583C65.6392 25.5889 65.8187 25.5532 66 25.5532C66.1813 25.5532 66.3608 25.5889 66.5283 25.6583C66.6959 25.7277 66.848 25.8294 66.9762 25.9576C67.1045 26.0858 67.2061 26.238 67.2755 26.4055C67.3449 26.573 67.3806 26.7525 67.3806 26.9338C67.3806 27.1151 67.3449 27.2947 67.2755 27.4622C67.2061 27.6297 67.1045 27.7819 66.9762 27.9101L54.6012 40.2851C54.4728 40.4125 54.3204 40.5133 54.1529 40.5818C53.9853 40.6502 53.806 40.6849 53.625 40.6838ZM49.5 44.8088C49.319 44.8099 49.1397 44.7752 48.9721 44.7068C48.8046 44.6383 48.6522 44.5375 48.5238 44.4101C48.3949 44.2823 48.2926 44.1302 48.2228 43.9626C48.153 43.7951 48.117 43.6153 48.117 43.4338C48.117 43.2523 48.153 43.0726 48.2228 42.905C48.2926 42.7375 48.3949 42.5854 48.5238 42.4576L49.8988 41.0826C50.1577 40.8237 50.5088 40.6782 50.875 40.6782C51.2412 40.6782 51.5923 40.8237 51.8512 41.0826C52.1102 41.3415 52.2556 41.6927 52.2556 42.0588C52.2556 42.425 52.1102 42.7762 51.8512 43.0351L50.4762 44.4101C50.3478 44.5375 50.1954 44.6383 50.0279 44.7068C49.8603 44.7752 49.681 44.8099 49.5 44.8088ZM72.875 37.9338C72.694 37.9349 72.5147 37.9002 72.3471 37.8318C72.1796 37.7633 72.0272 37.6625 71.8988 37.5351C71.7699 37.4073 71.6676 37.2552 71.5978 37.0876C71.528 36.9201 71.492 36.7403 71.492 36.5588C71.492 36.3773 71.528 36.1976 71.5978 36.03C71.6676 35.8625 71.7699 35.7104 71.8988 35.5826L76.7113 30.7701C76.9702 30.5112 77.3213 30.3657 77.6875 30.3657C78.0537 30.3657 78.4048 30.5112 78.6637 30.7701C78.9227 31.029 79.0681 31.3802 79.0681 31.7463C79.0681 32.1125 78.9227 32.4637 78.6637 32.7226L73.8512 37.5351C73.7228 37.6625 73.5704 37.7633 73.4029 37.8318C73.2353 37.9002 73.056 37.9349 72.875 37.9338ZM48.125 62.6838C47.944 62.6849 47.7647 62.6502 47.5971 62.5818C47.4296 62.5133 47.2772 62.4125 47.1488 62.2851C47.0199 62.1573 46.9176 62.0052 46.8478 61.8376C46.778 61.6701 46.742 61.4903 46.742 61.3088C46.742 61.1273 46.778 60.9476 46.8478 60.78C46.9176 60.6125 47.0199 60.4604 47.1488 60.3326L65.0238 42.4576C65.152 42.3294 65.3041 42.2277 65.4717 42.1583C65.6392 42.0889 65.8187 42.0532 66 42.0532C66.1813 42.0532 66.3608 42.0889 66.5283 42.1583C66.6959 42.2277 66.848 42.3294 66.9762 42.4576C67.1045 42.5858 67.2061 42.738 67.2755 42.9055C67.3449 43.073 67.3806 43.2525 67.3806 43.4338C67.3806 43.6151 67.3449 43.7947 67.2755 43.9622C67.2061 44.1297 67.1045 44.2819 66.9762 44.4101L49.1012 62.2851C48.9728 62.4125 48.8204 62.5133 48.6529 62.5818C48.4853 62.6502 48.306 62.6849 48.125 62.6838ZM23.375 36.5588C23.194 36.5599 23.0147 36.5252 22.8471 36.4568C22.6796 36.3883 22.5272 36.2875 22.3988 36.1601C22.2699 36.0323 22.1676 35.8802 22.0978 35.7126C22.028 35.5451 21.992 35.3653 21.992 35.1838C21.992 35.0023 22.028 34.8226 22.0978 34.655C22.1676 34.4875 22.2699 34.3354 22.3988 34.2076L37.5238 19.0826C37.7827 18.8237 38.1338 18.6782 38.5 18.6782C38.8662 18.6782 39.2173 18.8237 39.4762 19.0826C39.7352 19.3415 39.8806 19.6927 39.8806 20.0588C39.8806 20.425 39.7352 20.7762 39.4762 21.0351L24.3512 36.1601C24.2228 36.2875 24.0704 36.3883 23.9029 36.4568C23.7353 36.5252 23.556 36.5599 23.375 36.5588ZM17.875 42.0588C17.694 42.0599 17.5147 42.0252 17.3471 41.9568C17.1796 41.8883 17.0272 41.7875 16.8987 41.6601C16.7699 41.5323 16.6676 41.3802 16.5978 41.2126C16.528 41.0451 16.492 40.8653 16.492 40.6838C16.492 40.5023 16.528 40.3226 16.5978 40.155C16.6676 39.9875 16.7699 39.8354 16.8987 39.7076L18.2737 38.3326C18.402 38.2044 18.5542 38.1027 18.7217 38.0333C18.8892 37.9639 19.0687 37.9282 19.25 37.9282C19.4313 37.9282 19.6108 37.9639 19.7783 38.0333C19.9458 38.1027 20.098 38.2044 20.2263 38.3326C20.3545 38.4608 20.4561 38.613 20.5255 38.7805C20.5949 38.948 20.6306 39.1275 20.6306 39.3088C20.6306 39.4901 20.5949 39.6697 20.5255 39.8372C20.4561 40.0047 20.3545 40.1569 20.2263 40.2851L18.8513 41.6601C18.7228 41.7875 18.5704 41.8883 18.4029 41.9568C18.2353 42.0252 18.056 42.0599 17.875 42.0588Z" fill="#68539B"/>
<path d="M63.25 64.0588C64.0094 64.0588 64.625 63.4432 64.625 62.6838C64.625 61.9244 64.0094 61.3088 63.25 61.3088C62.4906 61.3088 61.875 61.9244 61.875 62.6838C61.875 63.4432 62.4906 64.0588 63.25 64.0588Z" fill="#FD8F07"/>
<path d="M56.375 25.5588C57.1344 25.5588 57.75 24.9432 57.75 24.1838C57.75 23.4244 57.1344 22.8088 56.375 22.8088C55.6156 22.8088 55 23.4244 55 24.1838C55 24.9432 55.6156 25.5588 56.375 25.5588Z" fill="#FD8F07"/>
<path d="M66 17.3088C66.7594 17.3088 67.375 16.6932 67.375 15.9338C67.375 15.1744 66.7594 14.5588 66 14.5588C65.2406 14.5588 64.625 15.1744 64.625 15.9338C64.625 16.6932 65.2406 17.3088 66 17.3088Z" fill="#FDA736"/>
<path d="M26.125 25.5588C26.8844 25.5588 27.5 24.9432 27.5 24.1838C27.5 23.4244 26.8844 22.8088 26.125 22.8088C25.3656 22.8088 24.75 23.4244 24.75 24.1838C24.75 24.9432 25.3656 25.5588 26.125 25.5588Z" fill="#FED370"/>
<path d="M74.25 26.9338C75.0094 26.9338 75.625 26.3182 75.625 25.5588C75.625 24.7994 75.0094 24.1838 74.25 24.1838C73.4906 24.1838 72.875 24.7994 72.875 25.5588C72.875 26.3182 73.4906 26.9338 74.25 26.9338Z" fill="#FD8F07"/>
<path d="M12.375 62.6838C13.1344 62.6838 13.75 62.0682 13.75 61.3088C13.75 60.5494 13.1344 59.9338 12.375 59.9338C11.6156 59.9338 11 60.5494 11 61.3088C11 62.0682 11.6156 62.6838 12.375 62.6838Z" fill="#FD8F07"/>
<path d="M79.75 44.8088C80.5094 44.8088 81.125 44.1932 81.125 43.4338C81.125 42.6744 80.5094 42.0588 79.75 42.0588C78.9906 42.0588 78.375 42.6744 78.375 43.4338C78.375 44.1932 78.9906 44.8088 79.75 44.8088Z" fill="#FED370"/>
<path d="M31.625 79.1838C32.3844 79.1838 33 78.5682 33 77.8088C33 77.0494 32.3844 76.4338 31.625 76.4338C30.8656 76.4338 30.25 77.0494 30.25 77.8088C30.25 78.5682 30.8656 79.1838 31.625 79.1838Z" fill="#FD8F07"/>
<path d="M30.25 13.1838C31.0094 13.1838 31.625 12.5682 31.625 11.8088C31.625 11.0494 31.0094 10.4338 30.25 10.4338C29.4906 10.4338 28.875 11.0494 28.875 11.8088C28.875 12.5682 29.4906 13.1838 30.25 13.1838Z" fill="#FD7504"/>
<path d="M11 43.4338C11.7594 43.4338 12.375 42.8182 12.375 42.0588C12.375 41.2994 11.7594 40.6838 11 40.6838C10.2406 40.6838 9.625 41.2994 9.625 42.0588C9.625 42.8182 10.2406 43.4338 11 43.4338Z" fill="#FED370"/>
<path d="M56.375 73.6838C56.0103 73.6838 55.6606 73.539 55.4027 73.2811C55.1449 73.0232 55 72.6735 55 72.3088V70.9338C55 70.5692 55.1449 70.2194 55.4027 69.9616C55.6606 69.7037 56.0103 69.5588 56.375 69.5588C56.7397 69.5588 57.0894 69.7037 57.3473 69.9616C57.6051 70.2194 57.75 70.5692 57.75 70.9338V72.3088C57.75 72.6735 57.6051 73.0232 57.3473 73.2811C57.0894 73.539 56.7397 73.6838 56.375 73.6838ZM60.5 76.4338H59.125C58.7603 76.4338 58.4106 76.289 58.1527 76.0311C57.8949 75.7732 57.75 75.4235 57.75 75.0588C57.75 74.6942 57.8949 74.3444 58.1527 74.0866C58.4106 73.8287 58.7603 73.6838 59.125 73.6838H60.5C60.8647 73.6838 61.2144 73.8287 61.4723 74.0866C61.7301 74.3444 61.875 74.6942 61.875 75.0588C61.875 75.4235 61.7301 75.7732 61.4723 76.0311C61.2144 76.289 60.8647 76.4338 60.5 76.4338ZM53.625 76.4338H52.25C51.8853 76.4338 51.5356 76.289 51.2777 76.0311C51.0199 75.7732 50.875 75.4235 50.875 75.0588C50.875 74.6942 51.0199 74.3444 51.2777 74.0866C51.5356 73.8287 51.8853 73.6838 52.25 73.6838H53.625C53.9897 73.6838 54.3394 73.8287 54.5973 74.0866C54.8551 74.3444 55 74.6942 55 75.0588C55 75.4235 54.8551 75.7732 54.5973 76.0311C54.3394 76.289 53.9897 76.4338 53.625 76.4338ZM56.375 80.5588C56.0103 80.5588 55.6606 80.414 55.4027 80.1561C55.1449 79.8982 55 79.5485 55 79.1838V77.8088C55 77.4442 55.1449 77.0944 55.4027 76.8366C55.6606 76.5787 56.0103 76.4338 56.375 76.4338C56.7397 76.4338 57.0894 76.5787 57.3473 76.8366C57.6051 77.0944 57.75 77.4442 57.75 77.8088V79.1838C57.75 79.5485 57.6051 79.8982 57.3473 80.1561C57.0894 80.414 56.7397 80.5588 56.375 80.5588Z" fill="#FDA736"/>
<path d="M44 10.4338C43.6353 10.4338 43.2856 10.289 43.0277 10.0311C42.7699 9.77325 42.625 9.42351 42.625 9.05884V7.68384C42.625 7.31917 42.7699 6.96943 43.0277 6.71157C43.2856 6.4537 43.6353 6.30884 44 6.30884C44.3647 6.30884 44.7144 6.4537 44.9723 6.71157C45.2301 6.96943 45.375 7.31917 45.375 7.68384V9.05884C45.375 9.42351 45.2301 9.77325 44.9723 10.0311C44.7144 10.289 44.3647 10.4338 44 10.4338ZM48.125 13.1838H46.75C46.3853 13.1838 46.0356 13.039 45.7777 12.7811C45.5199 12.5232 45.375 12.1735 45.375 11.8088C45.375 11.4442 45.5199 11.0944 45.7777 10.8366C46.0356 10.5787 46.3853 10.4338 46.75 10.4338H48.125C48.4897 10.4338 48.8394 10.5787 49.0973 10.8366C49.3551 11.0944 49.5 11.4442 49.5 11.8088C49.5 12.1735 49.3551 12.5232 49.0973 12.7811C48.8394 13.039 48.4897 13.1838 48.125 13.1838ZM41.25 13.1838H39.875C39.5103 13.1838 39.1606 13.039 38.9027 12.7811C38.6449 12.5232 38.5 12.1735 38.5 11.8088C38.5 11.4442 38.6449 11.0944 38.9027 10.8366C39.1606 10.5787 39.5103 10.4338 39.875 10.4338H41.25C41.6147 10.4338 41.9644 10.5787 42.2223 10.8366C42.4801 11.0944 42.625 11.4442 42.625 11.8088C42.625 12.1735 42.4801 12.5232 42.2223 12.7811C41.9644 13.039 41.6147 13.1838 41.25 13.1838ZM44 17.3088C43.6353 17.3088 43.2856 17.164 43.0277 16.9061C42.7699 16.6482 42.625 16.2985 42.625 15.9338V14.5588C42.625 14.1942 42.7699 13.8444 43.0277 13.5866C43.2856 13.3287 43.6353 13.1838 44 13.1838C44.3647 13.1838 44.7144 13.3287 44.9723 13.5866C45.2301 13.8444 45.375 14.1942 45.375 14.5588V15.9338C45.375 16.2985 45.2301 16.6482 44.9723 16.9061C44.7144 17.164 44.3647 17.3088 44 17.3088Z" fill="#FED370"/>
</svg>
