<svg width="77" height="79" viewBox="0 0 77 79" fill="none" xmlns="http://www.w3.org/2000/svg">
<path fill-rule="evenodd" clip-rule="evenodd" d="M72.1875 17.5906C72.1875 13.5516 68.9559 10.2781 64.9688 10.2781C53.3153 10.2781 23.6847 10.2781 12.0312 10.2781C8.04409 10.2781 4.8125 13.5516 4.8125 17.5906C4.8125 25.0835 4.8125 39.3477 4.8125 46.8406C4.8125 50.8795 8.04409 54.1531 12.0312 54.1531C23.6847 54.1531 53.3153 54.1531 64.9688 54.1531C68.9559 54.1531 72.1875 50.8795 72.1875 46.8406V17.5906Z" fill="#EF5350"/>
<path fill-rule="evenodd" clip-rule="evenodd" d="M4.8125 46.8405C4.8125 39.3476 4.8125 39.528 4.8125 39.528C4.8125 43.5669 8.04409 46.8405 12.0312 46.8405C23.6847 46.8405 53.3153 46.8405 64.9688 46.8405C68.9559 46.8405 72.1875 43.5669 72.1875 39.528V46.8405C72.1875 50.8794 68.9559 54.153 64.9688 54.153C53.3153 54.153 23.6847 54.153 12.0312 54.153C8.04409 54.153 4.8125 50.8794 4.8125 46.8405Z" fill="#E53935"/>
<path fill-rule="evenodd" clip-rule="evenodd" d="M7.21875 66.3404H69.7812C71.1095 66.3404 72.1875 65.2474 72.1875 63.9029C72.1875 62.5584 71.1095 61.4654 69.7812 61.4654H7.21875C5.8905 61.4654 4.8125 62.5584 4.8125 63.9029C4.8125 65.2474 5.8905 66.3404 7.21875 66.3404Z" fill="#FFEE58"/>
<path fill-rule="evenodd" clip-rule="evenodd" d="M5.13494 62.6843C5.55122 63.4131 6.32844 63.9031 7.21875 63.9031H69.7812C70.6716 63.9031 71.4488 63.4131 71.8651 62.6843C72.0696 63.0426 72.1875 63.4595 72.1875 63.9031C72.1875 65.2486 71.1095 66.3406 69.7812 66.3406H7.21875C5.8905 66.3406 4.8125 65.2486 4.8125 63.9031C4.8125 63.4595 4.93041 63.0426 5.13494 62.6843Z" fill="#FDD835"/>
<path d="M24.0625 68.7781C26.7204 68.7781 28.875 66.5955 28.875 63.9031C28.875 61.2107 26.7204 59.0281 24.0625 59.0281C21.4046 59.0281 19.25 61.2107 19.25 63.9031C19.25 66.5955 21.4046 68.7781 24.0625 68.7781Z" fill="#EF5350"/>
<path fill-rule="evenodd" clip-rule="evenodd" d="M19.4016 62.6843C19.9358 64.7855 21.8223 66.3406 24.0625 66.3406C26.3027 66.3406 28.1892 64.7855 28.7234 62.6843C28.8221 63.0743 28.875 63.4814 28.875 63.9031C28.875 66.5941 26.719 68.7781 24.0625 68.7781C21.406 68.7781 19.25 66.5941 19.25 63.9031C19.25 63.4814 19.3029 63.0743 19.4016 62.6843Z" fill="#E53935"/>
<path fill-rule="evenodd" clip-rule="evenodd" d="M44.7563 34.1656C45.3626 33.7049 45.7188 32.9834 45.7188 32.2156C45.7188 31.4478 45.3626 30.7263 44.7563 30.2656L35.1313 22.9531C34.4022 22.3998 33.4276 22.3096 32.6119 22.7239C31.7962 23.1359 31.2812 23.9793 31.2812 24.9031V39.5281C31.2812 40.4519 31.7962 41.2953 32.6119 41.7072C33.4276 42.1216 34.4022 42.0314 35.1313 41.4781L44.7563 34.1656Z" fill="#FFEE58"/>
<path fill-rule="evenodd" clip-rule="evenodd" d="M31.2812 37.0906C31.2812 38.0144 31.7962 38.8578 32.6119 39.2697C33.4276 39.6841 34.4022 39.5939 35.1313 39.0406L44.7563 31.7281C45.0185 31.5282 45.2351 31.2771 45.3963 30.9968C45.6057 31.3625 45.7188 31.7817 45.7188 32.2156C45.7188 32.9834 45.3626 33.7049 44.7563 34.1656L35.1313 41.4781C34.4022 42.0314 33.4276 42.1216 32.6119 41.7072C31.7962 41.2953 31.2812 40.4519 31.2812 39.5281V37.0906Z" fill="#FDD835"/>
</svg>
