<svg width="92" height="94" viewBox="0 0 92 94" fill="none" xmlns="http://www.w3.org/2000/svg">
<g clip-path="url(#clip0_143_197)">
<path opacity="0.3" d="M38.4015 29.082C38.4015 29.082 38.4015 42.9631 30.4622 42.9631H38.4015V29.082ZM40.8037 31.0281C40.8037 31.0281 40.2074 39.5531 58.5222 39.5531C58.5222 39.5531 63.3267 39.5358 63.2244 42.2053C63.2244 42.2053 61.2482 43.8414 59.0333 43.8414C56.8185 43.8414 43.1889 42.9458 43.1889 42.9458L40.1052 41.3097V31.0281H40.8037Z" fill="#5C77FF"/>
<path d="M75.4059 82.4364L64.4341 80.4386L62.7474 91.5642L47.1926 69.5542C47.8059 69.3647 48.3852 69.0203 48.8793 68.5209L49.9356 67.4531C51.0941 66.2647 52.8489 65.9203 54.3822 66.5575L55.7793 67.1431C57.8578 68.0214 60.243 67.0053 61.1119 64.9042L61.6741 63.5264C61.7252 63.4231 61.7593 63.3197 61.8274 63.2164L75.4059 82.4364ZM43.1207 68.5381C43.6148 69.0375 44.1941 69.382 44.8074 69.5714L29.2526 91.5814L27.5659 80.4559L16.5941 82.4536L30.1896 63.1992C30.2407 63.3025 30.2919 63.4231 30.343 63.5436L30.9222 64.9559C31.7911 67.057 34.1763 68.0559 36.2548 67.1775L37.6178 66.6092C39.1511 65.972 40.9059 66.3164 42.0644 67.5047L43.1207 68.5381Z" fill="#5C77FF"/>
<path d="M79.0859 39.2259C80.023 38.2786 80.5341 37.0386 80.5341 35.6953C80.5341 34.352 80.023 33.112 79.0859 32.1647L78.0296 31.097C77.1096 30.167 76.82 28.7547 77.3311 27.532L77.9104 26.137C78.4215 24.9142 78.4215 23.5536 77.9104 22.3136C77.3992 21.0736 76.4622 20.1264 75.2355 19.6097L73.8726 19.0414C72.663 18.542 71.8792 17.3536 71.8792 16.0275V14.5464C71.8792 11.7909 69.6644 9.55196 66.9385 9.55196H65.4222C64.1104 9.55196 62.9348 8.75974 62.4407 7.53696L61.8615 6.14196C61.0948 4.26474 59.3059 3.05919 57.2955 3.05919C56.6481 3.05919 56.0178 3.17974 55.4044 3.43808L54.0415 4.00641C53.6496 4.17863 53.2237 4.26474 52.7978 4.26474C51.9289 4.26474 51.1281 3.9203 50.5148 3.3003L49.4755 2.24974C48.5555 1.31974 47.3118 0.803076 46 0.803076C44.6881 0.803076 43.4444 1.31974 42.5074 2.26696L41.4511 3.33474C40.8378 3.95474 40.037 4.29919 39.1681 4.29919C38.7422 4.29919 38.3333 4.21308 37.9415 4.05808L36.5615 3.47252C35.9652 3.21419 35.3178 3.09363 34.6704 3.09363C32.66 3.09363 30.8711 4.29919 30.1044 6.17641L29.5422 7.55419C29.0481 8.77696 27.8726 9.56919 26.5607 9.56919H25.0956C22.3696 9.56919 20.1548 11.8081 20.1548 14.5636V16.0792C20.1548 17.4053 19.3711 18.5936 18.1615 19.0931L16.7644 19.6786C15.5548 20.1953 14.6007 21.1425 14.0896 22.3825C13.5785 23.6225 13.5956 24.9659 14.0896 26.2059L14.6519 27.5836C15.163 28.8064 14.8733 30.2014 13.9533 31.1486L12.9141 32.1992C11.977 33.1464 11.4659 34.3864 11.4659 35.7297C11.4659 37.0731 11.977 38.3131 12.9141 39.2603L13.9704 40.3281C14.8904 41.2581 15.18 42.6531 14.6689 43.8931L14.0896 45.3053C13.5785 46.5281 13.5785 47.8886 14.0896 49.1286C14.6007 50.3514 15.5378 51.3158 16.7644 51.8325L18.1274 52.4009C19.337 52.9003 20.1207 54.0886 20.1207 55.4147V56.8959C20.1207 59.6514 22.3356 61.8903 25.0615 61.8903H26.5607C27.7704 61.8903 28.8607 62.562 29.423 63.647C29.4741 63.7331 29.5081 63.8192 29.5422 63.9053L30.1215 65.3175C30.8881 67.1947 32.677 68.4003 34.6874 68.4003C35.3348 68.4003 35.9652 68.2797 36.5785 68.0214L37.9415 67.4531C38.3333 67.2809 38.7593 67.212 39.1852 67.212C40.0541 67.212 40.8548 67.5564 41.4681 68.1764L42.5074 69.227C43.0696 69.7953 43.7852 70.2259 44.5518 70.467C45.0289 70.622 45.5059 70.6908 46 70.6908C46.4941 70.6908 46.9881 70.622 47.4481 70.467C48.2148 70.2259 48.9133 69.7953 49.4926 69.227L50.5489 68.1592C51.1622 67.5392 51.963 67.1947 52.8318 67.1947C53.2578 67.1947 53.6667 67.2809 54.0755 67.4359L55.4556 68.0214C56.0518 68.2797 56.6992 68.4003 57.3467 68.4003C59.357 68.4003 61.1459 67.1947 61.9126 65.3175L62.4748 63.9397C62.5089 63.8536 62.5429 63.7675 62.5941 63.6814C63.1563 62.5964 64.2467 61.9075 65.4733 61.9075H66.9385C69.6644 61.9075 71.8792 59.6686 71.8792 56.9131V55.3975C71.8792 54.0714 72.663 52.8831 73.8726 52.3836L75.2696 51.7981C76.4792 51.2814 77.4333 50.3342 77.9444 49.0942C78.4555 47.8542 78.4555 46.5109 77.9444 45.2709L77.3822 43.8931C76.8711 42.6703 77.1607 41.2753 78.0807 40.3281L79.0859 39.2259ZM76.837 39.0709C75.423 40.5003 74.997 42.6359 75.7637 44.5131L76.3259 45.8908C76.6496 46.7003 76.6496 47.5786 76.3259 48.3881C76.0022 49.1975 75.3718 49.8175 74.5711 50.162L73.1741 50.7475C71.3341 51.5225 70.1415 53.3308 70.1415 55.3631V56.8786C70.1415 58.687 68.6933 60.1509 66.9044 60.1509H65.4392C63.5822 60.1509 61.9126 61.1842 61.0437 62.8547C60.9755 62.9753 60.9244 63.1131 60.8733 63.2336L60.3111 64.6114C59.817 65.8342 58.6415 66.6264 57.3296 66.6264C56.9037 66.6264 56.4948 66.5403 56.103 66.3853L54.723 65.7997C54.1267 65.5414 53.4793 65.4209 52.8318 65.4209C51.52 65.4209 50.2763 65.9375 49.3393 66.8847L48.283 67.9525C47.9081 68.3314 47.4481 68.607 46.9541 68.762C46.3407 68.9514 45.6763 68.9514 45.0459 68.762C44.5348 68.607 44.0918 68.3314 43.717 67.9525L42.6778 66.902C41.7407 65.9547 40.5141 65.4381 39.1852 65.4381C38.5378 65.4381 37.8904 65.5586 37.2941 65.817L35.9311 66.3853C35.5393 66.5575 35.1133 66.6436 34.6874 66.6436C33.3756 66.6436 32.2 65.8514 31.7059 64.6286L31.1267 63.2336C31.0756 63.0958 31.0074 62.9581 30.9393 62.8203C30.0874 61.167 28.4178 60.1509 26.5778 60.1509H25.0785C23.2896 60.1509 21.8415 58.687 21.8415 56.8786V55.3975C21.8415 53.3653 20.6489 51.557 18.7919 50.782L17.4289 50.2136C16.6281 49.8864 16.0148 49.2492 15.6741 48.4397C15.3504 47.6303 15.3504 46.752 15.6741 45.9425L16.2533 44.5303C17.02 42.6531 16.5941 40.5347 15.18 39.1053L14.1237 38.0375C13.5104 37.4175 13.1696 36.6081 13.1696 35.7297C13.1696 34.8514 13.5104 34.042 14.1237 33.422L15.163 32.3714C16.577 30.942 17.003 28.8064 16.2363 26.9292L15.6741 25.5514C15.3504 24.742 15.3504 23.8636 15.6741 23.0542C15.9978 22.2447 16.6281 21.6247 17.4289 21.2803L18.8259 20.6947C20.6659 19.9197 21.8585 18.1114 21.8585 16.0964V14.5809C21.8585 12.7725 23.3067 11.3086 25.0956 11.3086H26.5607C28.5711 11.3086 30.36 10.1031 31.1267 8.22585L31.6889 6.84808C32.183 5.6253 33.3585 4.83308 34.6704 4.83308C35.0963 4.83308 35.5052 4.91919 35.897 5.07419L37.277 5.65974C37.8733 5.91808 38.5037 6.03863 39.1681 6.03863C40.48 6.03863 41.7237 5.52196 42.6607 4.57474L43.717 3.50696C44.3304 2.88696 45.1481 2.54252 46 2.54252C46.8518 2.54252 47.6696 2.88696 48.283 3.50696L49.3222 4.55752C50.2593 5.50474 51.4859 6.02141 52.8148 6.02141C53.4622 6.02141 54.1096 5.90085 54.7059 5.64252L56.0689 5.07419C56.4607 4.90196 56.8867 4.81585 57.3126 4.81585C58.6244 4.81585 59.8 5.60808 60.2941 6.83085L60.8733 8.22585C61.64 10.1031 63.4289 11.3086 65.4222 11.3086H66.9215C68.7104 11.3086 70.1585 12.7725 70.1585 14.5809V16.0447C70.1585 18.077 71.3511 19.8853 73.2081 20.6603L74.5711 21.2286C75.3718 21.5559 75.9852 22.1931 76.3259 23.0025C76.6496 23.812 76.6496 24.6903 76.3259 25.4997L75.7467 26.8947C74.98 28.772 75.4059 30.8903 76.82 32.337L77.8763 33.4047C78.4896 34.0247 78.8304 34.8342 78.8304 35.7125C78.8304 36.5909 78.4896 37.4003 77.8763 38.0203L76.837 39.0709Z" fill="#354B87"/>
<path d="M68.6593 37.5899C68.6593 37.5382 68.6763 37.4865 68.6763 37.4349C68.6763 37.3487 68.6933 37.2454 68.6933 37.1593C68.6933 37.056 68.7104 36.9526 68.7104 36.8493C68.7104 36.8321 68.7104 36.8149 68.7104 36.7976C68.7274 36.436 68.7445 36.0743 68.7445 35.6954C68.7445 35.3165 68.7274 34.9549 68.7104 34.5932C68.7104 34.576 68.7104 34.5587 68.7104 34.5587C68.7104 34.4554 68.6933 34.3521 68.6933 34.2315C68.6933 34.1454 68.6763 34.0421 68.6763 33.956C68.6763 33.9043 68.6593 33.8526 68.6593 33.801C68.6422 33.646 68.6422 33.5082 68.6252 33.3532V33.336C68.097 28.0832 65.8311 23.2265 62.083 19.4376C58.2156 15.5282 53.1896 13.186 47.7719 12.7726C47.7548 12.7726 47.7548 12.7726 47.7378 12.7726C47.5845 12.7554 47.4482 12.7554 47.2948 12.7382C47.2437 12.7382 47.1926 12.7382 47.1415 12.721C47.0393 12.721 46.937 12.721 46.8348 12.7037C46.7496 12.7037 46.6474 12.7037 46.5622 12.6865C46.5452 12.6865 46.5111 12.6865 46.4941 12.6865C46.3237 12.6865 46.1704 12.6865 46 12.6865C45.8467 12.6865 45.6933 12.6865 45.54 12.6865C45.5059 12.6865 45.4719 12.6865 45.4378 12.6865C45.3526 12.6865 45.2844 12.6865 45.1993 12.7037C45.08 12.7037 44.9778 12.7037 44.8585 12.721C44.8244 12.721 44.7733 12.721 44.7393 12.721C39.1511 13.031 33.9207 15.3732 29.9341 19.4204C25.6407 23.7604 23.2726 29.5299 23.2726 35.661C23.2726 41.7921 25.6407 47.5615 29.9341 51.9015C33.9548 55.966 39.2022 58.3082 44.8415 58.601C45.0119 58.6182 45.1822 58.6182 45.3526 58.6182C45.3696 58.6182 45.4037 58.6182 45.4207 58.6182C45.6082 58.6182 45.8126 58.6182 46 58.6182H46.017C46.2045 58.6182 46.3919 58.6182 46.5793 58.6182C46.6133 58.6182 46.6474 58.6182 46.6815 58.6182C46.8348 58.6182 47.0052 58.601 47.1585 58.601C47.1756 58.601 47.1756 58.601 47.1926 58.601C52.8148 58.3082 58.0622 55.9487 62.0659 51.9015C65.8141 48.1126 68.08 43.256 68.6082 38.0032C68.6252 37.8999 68.6422 37.7449 68.6593 37.5899ZM67.0067 36.7632C67.0067 36.8665 66.9896 36.9699 66.9896 37.0732C66.9896 37.1593 66.9726 37.2282 66.9726 37.3143C66.9726 37.366 66.9556 37.4176 66.9556 37.4693C66.9385 37.6071 66.9385 37.7449 66.9215 37.8654V37.8826C65.8652 48.216 57.483 56.3793 47.1245 56.9304C47.1074 56.9304 47.1074 56.9304 47.0904 56.9304C46.937 56.9304 46.7837 56.9476 46.6474 56.9476C46.6133 56.9476 46.5793 56.9476 46.5622 56.9476C46.3919 56.9476 46.2215 56.9476 46.0341 56.9476H46.017C45.8296 56.9476 45.6593 56.9476 45.4719 56.9476C45.4548 56.9476 45.4378 56.9476 45.4037 56.9476C45.2504 56.9476 45.08 56.9304 44.9267 56.9304C33.8356 56.3621 24.9763 47.0621 24.9763 35.6954C24.9763 24.5182 33.5459 15.3387 44.3815 14.4949C44.5178 14.4776 44.6711 14.4776 44.8074 14.4604C44.8415 14.4604 44.8926 14.4604 44.9267 14.4604C45.0289 14.4604 45.1311 14.4604 45.2333 14.4432C45.3185 14.4432 45.3867 14.4432 45.4719 14.426C45.4889 14.426 45.523 14.426 45.54 14.426C45.6933 14.426 45.8467 14.426 46 14.426C46.1533 14.426 46.3237 14.426 46.477 14.426C46.4941 14.426 46.5111 14.426 46.5282 14.426C46.6133 14.426 46.6985 14.426 46.7837 14.4432C46.8689 14.4432 46.9711 14.4432 47.0563 14.4604C47.1074 14.4604 47.1585 14.4604 47.2096 14.4776C47.3459 14.4776 47.4822 14.4949 47.6015 14.4949C47.6185 14.4949 47.6185 14.4949 47.6356 14.4949C57.7385 15.2871 65.8822 23.3471 66.9045 33.491C66.9045 33.5082 66.9045 33.5082 66.9045 33.5254C66.9215 33.6632 66.9215 33.7837 66.9385 33.9215C66.9385 33.9732 66.9556 34.0249 66.9556 34.0765C66.9556 34.1454 66.9726 34.2315 66.9726 34.3176C67.0067 34.7826 67.0237 35.2304 67.0237 35.6954C67.0237 36.0571 67.0237 36.4015 67.0067 36.7632Z" fill="#354B87"/>
<path d="M62.4578 32.1131C62.9348 31.6136 63.2415 30.9247 63.2415 30.167C63.2415 28.617 61.9978 27.3597 60.4644 27.3597H51.9119L53.1044 22.5203C53.4793 21.022 52.7807 19.4892 51.4007 18.7831C50.9407 18.5592 50.4637 18.4386 49.9526 18.4386C48.7089 18.4386 47.6015 19.1275 47.0563 20.247L43.3763 27.7042C42.8822 28.6859 41.9111 29.3059 40.8037 29.3059H40.1052V28.2209C40.1052 27.7386 39.7304 27.3597 39.2533 27.3597H29.6104C29.1333 27.3597 28.7585 27.7386 28.7585 28.2209V43.8242C28.7585 44.3064 29.1333 44.6853 29.6104 44.6853H39.2533C39.7304 44.6853 40.1052 44.3064 40.1052 43.8242V43.2042C42.4222 44.1686 44.9267 44.6853 47.4311 44.6853H60.4815C62.0148 44.6853 63.2585 43.4281 63.2585 41.8781C63.2585 41.1203 62.9689 40.4314 62.4748 39.932C62.9519 39.4325 63.2585 38.7436 63.2585 37.9859C63.2585 37.2281 62.9689 36.5392 62.4748 36.0397C62.9519 35.5403 63.2585 34.8514 63.2585 34.0936C63.2415 33.3186 62.9519 32.6297 62.4578 32.1131ZM38.4015 42.9631H30.4622V29.082H38.4015V30.167V41.8609V42.9631ZM58.5393 32.9742H60.4644C61.0607 32.9742 61.5378 33.4564 61.5378 34.0592C61.5378 34.662 61.0607 35.1442 60.4644 35.1442H58.5393C58.0622 35.1442 57.6874 35.5231 57.6874 36.0053C57.6874 36.4875 58.0622 36.8664 58.5393 36.8664H60.4644C61.0607 36.8664 61.5378 37.3486 61.5378 37.9514C61.5378 38.5542 61.0607 39.0364 60.4644 39.0364H58.5393C58.0622 39.0364 57.6874 39.4153 57.6874 39.8975C57.6874 40.3797 58.0622 40.7586 58.5393 40.7586H60.4644C61.0607 40.7586 61.5378 41.2409 61.5378 41.8436C61.5378 42.4464 61.0607 42.9286 60.4644 42.9286H47.4141C44.8926 42.9286 42.3881 42.3603 40.0881 41.2925V31.0281H40.7867C42.5244 31.0281 44.0919 30.0464 44.8756 28.4792L48.5556 21.022C48.8111 20.4881 49.3393 20.1609 49.9356 20.1609C50.1741 20.1609 50.4126 20.2125 50.617 20.3331C51.2644 20.6603 51.6052 21.3836 51.4178 22.107L49.9526 28.0314C49.8844 28.2897 49.9526 28.5653 50.1059 28.772C50.2593 28.9786 50.5148 29.0992 50.7704 29.0992H60.4133C61.0096 29.0992 61.4867 29.5814 61.4867 30.1842C61.4867 30.787 61.0096 31.2692 60.4133 31.2692H58.4881C58.0111 31.2692 57.6363 31.6481 57.6363 32.1303C57.6363 32.6125 58.0622 32.9742 58.5393 32.9742Z" fill="#354B87"/>
<path d="M47.3289 63.3025C46.8519 63.3025 46.46 62.9236 46.4259 62.4414C46.4089 61.942 46.7837 61.5114 47.2778 61.4942C47.857 61.4597 48.4363 61.4253 48.9985 61.3564C49.4926 61.3048 49.9356 61.6492 50.0037 62.1486C50.0548 62.6481 49.7141 63.0959 49.22 63.1648C48.6067 63.2336 47.9933 63.2853 47.38 63.3198C47.3459 63.3025 47.3289 63.3025 47.3289 63.3025ZM43.7511 63.2336C43.7341 63.2336 43.7 63.2336 43.683 63.2336C43.0696 63.182 42.4563 63.1131 41.843 63.0098C41.3489 62.9409 41.0081 62.4759 41.0933 61.9764C41.1615 61.477 41.6215 61.1497 42.1156 61.2186C42.6778 61.3047 43.257 61.3736 43.8363 61.4253C44.3304 61.4598 44.7052 61.9075 44.6541 62.407C44.603 62.8892 44.2111 63.2336 43.7511 63.2336ZM52.6104 62.4931C52.2185 62.4931 51.8437 62.2175 51.7415 61.8042C51.6222 61.322 51.9119 60.8225 52.3889 60.702C52.9511 60.5642 53.4963 60.392 54.0415 60.2025C54.5185 60.0475 55.0126 60.3059 55.183 60.7709C55.3363 61.2531 55.0807 61.7525 54.6207 61.9247C54.0415 62.1142 53.4452 62.3036 52.8489 62.4586C52.7637 62.4759 52.6785 62.4931 52.6104 62.4931ZM38.5037 62.252C38.4185 62.252 38.3333 62.2348 38.2481 62.2175C37.6689 62.0453 37.0726 61.8386 36.4933 61.632C36.0333 61.4598 35.7948 60.9431 35.9652 60.4609C36.1356 59.9959 36.6467 59.7547 37.1237 59.927C37.6519 60.1336 38.2141 60.3059 38.7593 60.4781C39.2363 60.6159 39.5089 61.1325 39.3726 61.6147C39.2533 61.9936 38.8956 62.252 38.5037 62.252ZM57.6363 60.6159C57.2956 60.6159 56.9889 60.4264 56.8356 60.0992C56.6141 59.6514 56.8015 59.1003 57.2444 58.8764C57.7556 58.6181 58.2667 58.3425 58.7607 58.0497C59.1867 57.7914 59.7319 57.9464 59.9874 58.377C60.243 58.8075 60.0896 59.3586 59.6637 59.617C59.1356 59.927 58.5904 60.2197 58.0281 60.4953C57.8919 60.5814 57.7556 60.6159 57.6363 60.6159ZM33.5459 60.1853C33.4096 60.1853 33.2563 60.1509 33.12 60.082C32.5748 59.7892 32.0467 59.4792 31.5185 59.152C31.0926 58.8936 30.9733 58.3253 31.2289 57.8947C31.4844 57.4642 32.0467 57.3436 32.4726 57.602C32.9496 57.912 33.4607 58.2048 33.9719 58.4803C34.4148 58.7214 34.5681 59.2725 34.3467 59.7031C34.1763 60.0131 33.8696 60.1853 33.5459 60.1853ZM62.1681 57.757C61.8956 57.757 61.64 57.6364 61.4526 57.4125C61.1459 57.0164 61.2141 56.4481 61.6059 56.1381C62.0659 55.7764 62.5089 55.4147 62.9348 55.0186C63.3096 54.6914 63.8718 54.7259 64.1956 55.0875C64.5193 55.4664 64.4852 56.0348 64.1274 56.362C63.6674 56.7753 63.1904 57.1714 62.7133 57.5503C62.56 57.6881 62.3556 57.757 62.1681 57.757ZM29.1163 57.1714C28.9119 57.1714 28.7074 57.1025 28.537 56.9648C28.06 56.5686 27.6 56.1553 27.157 55.7247C26.7993 55.3803 26.7822 54.812 27.123 54.4331C27.4637 54.0542 28.0259 54.0542 28.4007 54.3986C28.8096 54.7948 29.2526 55.1909 29.6956 55.5525C30.0704 55.8797 30.1385 56.4481 29.8148 56.827C29.6274 57.0681 29.3719 57.1714 29.1163 57.1714ZM66.0526 54.037C65.8482 54.037 65.6437 53.9681 65.4733 53.8131C65.0985 53.4859 65.0474 52.9175 65.3711 52.5386C65.7459 52.0909 66.1037 51.6431 66.4444 51.1781C66.7341 50.782 67.3133 50.6959 67.7052 50.9886C68.097 51.2814 68.1822 51.867 67.8926 52.2631C67.5348 52.7625 67.143 53.2448 66.7341 53.7098C66.5467 53.9336 66.2911 54.037 66.0526 54.037ZM25.3681 53.3309C25.1126 53.3309 24.84 53.2103 24.6696 52.9864C24.2778 52.5042 23.92 52.0047 23.5622 51.4881C23.2726 51.0747 23.3748 50.5064 23.7837 50.2309C24.1926 49.9381 24.7548 50.0414 25.0274 50.4547C25.3511 50.937 25.7089 51.402 26.0667 51.8497C26.3733 52.2459 26.3222 52.8142 25.9304 53.1242C25.76 53.262 25.5726 53.3309 25.3681 53.3309ZM69.1022 49.6109C68.9489 49.6109 68.8126 49.5764 68.6593 49.4903C68.2333 49.2492 68.063 48.6981 68.3185 48.2503C68.5911 47.7509 68.8637 47.217 69.1022 46.7003C69.3067 46.2525 69.8519 46.0459 70.2948 46.2697C70.7378 46.4764 70.9422 47.0275 70.7207 47.4753C70.4652 48.0264 70.1756 48.5947 69.8859 49.1286C69.7326 49.4386 69.4259 49.6109 69.1022 49.6109ZM22.4548 48.7842C22.1311 48.7842 21.8074 48.612 21.6541 48.2848C21.3815 47.7336 21.1089 47.1653 20.8704 46.597C20.683 46.132 20.8874 45.5981 21.3474 45.4086C21.8074 45.2192 22.3356 45.4259 22.523 45.8909C22.7444 46.4247 23 46.9586 23.2556 47.4753C23.477 47.9231 23.3067 48.4742 22.8637 48.6981C22.7444 48.7497 22.5911 48.7842 22.4548 48.7842ZM71.2148 44.6336C71.1296 44.6336 71.0274 44.6164 70.9422 44.5992C70.4652 44.4442 70.2096 43.9447 70.363 43.4625C70.5333 42.9114 70.6867 42.3431 70.823 41.7747C70.9422 41.2925 71.4193 40.9825 71.9133 41.1031C72.3904 41.2236 72.697 41.7059 72.5778 42.2053C72.4415 42.8081 72.2711 43.4109 72.0837 43.9964C71.9644 44.3925 71.6067 44.6336 71.2148 44.6336ZM20.5126 43.7381C20.1207 43.7381 19.763 43.4797 19.6437 43.0664C19.4733 42.4636 19.337 41.8609 19.2178 41.2581C19.1156 40.7586 19.4393 40.2936 19.9163 40.1903C20.4104 40.087 20.8704 40.4142 20.9726 40.8964C21.0919 41.4647 21.2281 42.0331 21.3815 42.5842C21.5178 43.0664 21.2281 43.5659 20.7511 43.7036C20.6659 43.7381 20.5978 43.7381 20.5126 43.7381ZM72.3052 39.3464C72.2711 39.3464 72.237 39.3464 72.22 39.3464C71.7259 39.2947 71.3681 38.847 71.4193 38.3475C71.4704 37.7792 71.5215 37.1936 71.5385 36.6081C71.5556 36.1086 71.9815 35.7125 72.4585 35.7297C72.9526 35.747 73.3444 36.1603 73.3274 36.6597C73.3104 37.2797 73.2593 37.8997 73.2081 38.5197C73.14 39.002 72.7481 39.3464 72.3052 39.3464ZM19.6267 38.4164C19.1496 38.4164 18.7578 38.0547 18.7237 37.5725C18.6896 36.9525 18.6556 36.3325 18.6556 35.7125V35.6436C18.6556 35.1442 19.0644 34.7309 19.5585 34.7309C20.0526 34.7309 20.4615 35.1442 20.4615 35.6436V35.7125C20.4615 36.2809 20.4785 36.8836 20.5126 37.452C20.5467 37.9514 20.1719 38.382 19.6778 38.4164C19.6607 38.4164 19.6437 38.4164 19.6267 38.4164ZM72.3052 33.9386C71.8452 33.9386 71.4533 33.5942 71.4193 33.112C71.3681 32.5436 71.283 31.9581 71.1978 31.3897C71.1126 30.8903 71.4533 30.4253 71.9304 30.3392C72.4244 30.2531 72.8844 30.5975 72.9696 31.0797C73.0718 31.6997 73.157 32.3197 73.2081 32.9225C73.2593 33.422 72.9015 33.8697 72.4074 33.9214C72.3733 33.9386 72.3393 33.9386 72.3052 33.9386ZM19.8141 32.957C19.78 32.957 19.7289 32.957 19.6948 32.9397C19.2007 32.8709 18.86 32.4059 18.9281 31.9236C19.0133 31.3036 19.1156 30.6836 19.2348 30.0809C19.337 29.5814 19.8141 29.2714 20.2911 29.3747C20.7852 29.4781 21.0919 29.9603 20.9896 30.4425C20.8704 31.0109 20.7681 31.5792 20.7 32.1647C20.6319 32.6125 20.257 32.957 19.8141 32.957ZM71.2489 28.6342C70.8741 28.6342 70.5163 28.3931 70.397 27.997C70.2267 27.4459 70.0393 26.8947 69.8348 26.3436C69.6474 25.8786 69.8859 25.3447 70.3459 25.1725C70.8059 24.9831 71.3341 25.2242 71.5044 25.6892C71.7259 26.2747 71.9304 26.8603 72.1178 27.4459C72.2711 27.9281 71.9985 28.4275 71.5215 28.5825C71.4193 28.6342 71.3341 28.6342 71.2489 28.6342ZM21.0748 27.7042C20.9726 27.7042 20.8704 27.687 20.7681 27.6525C20.3081 27.4803 20.0526 26.9636 20.223 26.4986C20.4274 25.9131 20.6489 25.3275 20.9044 24.7592C21.1089 24.2942 21.637 24.0875 22.08 24.2942C22.54 24.5009 22.7444 25.0347 22.54 25.4825C22.3185 26.0164 22.097 26.5503 21.9096 27.1014C21.7904 27.4631 21.4326 27.7042 21.0748 27.7042ZM69.1363 23.6742C68.8126 23.6742 68.5059 23.502 68.3526 23.2092C68.08 22.7097 67.7733 22.1931 67.4667 21.7109C67.1941 21.2975 67.3133 20.7292 67.7393 20.4536C68.1481 20.1781 68.7104 20.2986 68.983 20.7292C69.3237 21.2459 69.6304 21.797 69.937 22.3309C70.1756 22.7614 70.0222 23.3297 69.5793 23.5709C69.4259 23.6225 69.2896 23.6742 69.1363 23.6742ZM23.3578 22.8131C23.2044 22.8131 23.0341 22.7786 22.8978 22.6753C22.4719 22.417 22.3356 21.8659 22.5911 21.4353C22.9148 20.9014 23.2385 20.3847 23.5963 19.8681C23.8859 19.4547 24.4481 19.3514 24.84 19.6442C25.2489 19.937 25.3511 20.5053 25.0615 20.9014C24.7378 21.3836 24.4141 21.8659 24.1244 22.3653C23.9541 22.6581 23.6644 22.8131 23.3578 22.8131ZM66.0867 19.2309C65.8311 19.2309 65.5756 19.1275 65.4052 18.9209C65.0304 18.4731 64.6385 18.0425 64.2467 17.6292C63.9059 17.2675 63.9059 16.6992 64.2637 16.3375C64.6215 15.9931 65.1837 15.9931 65.5415 16.3547C65.9674 16.8025 66.3933 17.2503 66.7852 17.7325C67.1089 18.1114 67.0578 18.6797 66.683 19.007C66.4956 19.162 66.2911 19.2309 66.0867 19.2309ZM26.5607 18.4903C26.3393 18.4903 26.1178 18.4042 25.9474 18.2492C25.5896 17.9047 25.5556 17.3364 25.8963 16.9575C26.3052 16.5097 26.7481 16.062 27.1911 15.6314C27.5489 15.287 28.1281 15.3042 28.4689 15.6659C28.8096 16.0275 28.7926 16.6131 28.4348 16.9575C28.0259 17.3536 27.617 17.767 27.2252 18.1975C27.0548 18.4042 26.7993 18.4903 26.5607 18.4903ZM62.2022 15.4936C62.0148 15.4936 61.8104 15.4247 61.657 15.3042C61.197 14.9425 60.737 14.5981 60.26 14.2881C59.8511 14.0125 59.7318 13.4442 60.0215 13.0309C60.2941 12.6175 60.8563 12.497 61.2652 12.7897C61.7763 13.1342 62.2704 13.4959 62.7644 13.892C63.1563 14.202 63.2244 14.7703 62.9178 15.1664C62.7474 15.3731 62.4748 15.4936 62.2022 15.4936ZM30.5644 14.9081C30.2919 14.9081 30.0022 14.7703 29.8319 14.5292C29.5422 14.1159 29.6274 13.5475 30.0363 13.2547C30.5304 12.8931 31.0585 12.5486 31.5696 12.2214C31.9956 11.9631 32.5407 12.0836 32.8133 12.5142C33.0689 12.9447 32.9496 13.4959 32.5237 13.7714C32.0296 14.0814 31.5526 14.4086 31.0926 14.7359C30.9393 14.8564 30.7519 14.9081 30.5644 14.9081ZM57.6704 12.6347C57.5341 12.6347 57.3978 12.6003 57.2785 12.5486C56.7674 12.2903 56.2393 12.0492 55.7111 11.8253C55.2511 11.6359 55.0296 11.102 55.217 10.637C55.4044 10.172 55.9326 9.94808 56.3926 10.1375C56.9548 10.3786 57.517 10.637 58.0793 10.9125C58.5222 11.1364 58.7096 11.6875 58.4881 12.1353C58.3348 12.4453 58.0111 12.6347 57.6704 12.6347ZM35.1985 12.2042C34.8578 12.2042 34.5341 11.9975 34.3807 11.6703C34.1763 11.2053 34.3807 10.6714 34.8407 10.4647C35.403 10.2064 35.9822 9.9653 36.5444 9.75863C37.0044 9.58641 37.5326 9.82752 37.703 10.2925C37.8733 10.7575 37.6348 11.2914 37.1748 11.4636C36.6296 11.6703 36.1015 11.877 35.5733 12.1181C35.4541 12.187 35.3348 12.2042 35.1985 12.2042ZM52.6615 10.7403C52.5933 10.7403 52.5081 10.7231 52.44 10.7059C51.8778 10.5681 51.3156 10.4303 50.7533 10.327C50.2593 10.2409 49.9526 9.75863 50.0378 9.25919C50.123 8.75974 50.6 8.44974 51.0941 8.53585C51.6904 8.65641 52.3037 8.79419 52.9 8.94919C53.377 9.06974 53.6667 9.56919 53.5474 10.0514C53.4281 10.4647 53.0704 10.7403 52.6615 10.7403ZM40.2926 10.5164C39.8837 10.5164 39.5089 10.2236 39.4237 9.8103C39.3215 9.32808 39.6281 8.82863 40.1052 8.7253C40.7015 8.58752 41.3148 8.48419 41.9282 8.38085C42.4222 8.31196 42.8822 8.65641 42.9504 9.13863C43.0185 9.63808 42.6778 10.1031 42.2007 10.172C41.6385 10.2581 41.0593 10.3614 40.497 10.482C40.4119 10.4992 40.3437 10.5164 40.2926 10.5164ZM47.38 9.91363C47.363 9.91363 47.3459 9.91363 47.3289 9.91363C46.7667 9.87919 46.1704 9.87919 45.6082 9.87919H45.5911C45.097 9.87919 44.7052 9.48308 44.6881 8.98363C44.6881 8.48419 45.08 8.07085 45.5741 8.05363C46.1874 8.03641 46.8007 8.05363 47.4141 8.08808C47.9081 8.12252 48.283 8.53585 48.2659 9.0353C48.2489 9.55196 47.857 9.91363 47.38 9.91363Z" fill="#5C77FF"/>
</g>
<defs>
<clipPath id="clip0_143_197">
<rect width="92" height="93" fill="white" transform="translate(0 0.0280762)"/>
</clipPath>
</defs>
</svg>
