<svg width="461" height="86" viewBox="0 0 461 86" fill="none" xmlns="http://www.w3.org/2000/svg">
<path d="M0 86C62.453 53.2529 112.013 49.0227 146.43 51.6248C193.444 55.1878 205.787 71.0142 274.351 75.498C334.432 79.4212 372.226 70.3737 383.858 67.3579C417.47 58.644 443.644 45.6065 461 35.5182C371.756 63.4613 314.651 62.9142 282.607 59.1377C258.443 56.282 239.318 53.0794 239.318 53.0794C180.363 43.1778 168.838 34.4773 134.22 34.0369C123.003 33.8901 100.943 33.7834 74.1797 42.0436C38.611 53.0127 13.8576 72.8691 0 86Z" fill="#008D36"/>
<path d="M0 52C62.453 19.2529 112.013 15.0227 146.43 17.6248C193.444 21.1878 205.787 37.0142 274.351 41.498C334.432 45.4212 372.226 36.3737 383.858 33.3579C417.47 24.644 443.644 11.6065 461 1.51816C371.756 29.4613 314.651 28.9142 282.607 25.1377C258.443 22.282 239.318 19.0794 239.318 19.0794C180.363 9.17785 168.838 0.477301 134.22 0.0369362C123.003 -0.109852 100.943 -0.216608 74.1797 8.04357C38.611 18.9993 13.8576 38.8558 0 52Z" fill="#F39200"/>
</svg>
